<?xml version="1.0" standalone="no"?>
<!DOCTYPE svg PUBLIC "-//W3C//DTD SVG 20010904//EN"
 "http://www.w3.org/TR/2001/REC-SVG-20010904/DTD/svg10.dtd">
<svg version="1.0" xmlns="http://www.w3.org/2000/svg"
 width="700.000000pt" height="700.000000pt" viewBox="0 0 700.000000 700.000000"
 preserveAspectRatio="xMidYMid meet">
<metadata>
Created by potrace 1.11, written by Peter Selinger 2001-2013
</metadata>
<g transform="translate(0.000000,700.000000) scale(0.100000,-0.100000)"
fill="#000000" stroke="none">
<path d="M1842 6258 l-583 -743 722 -3 722 -2 -5 -326 -6 -327 285 -139 c157
-77 287 -138 289 -135 3 3 -145 547 -329 1209 l-334 1203 -89 3 -89 2 -583
-742z"/>
<path d="M2829 6833 c26 -93 177 -637 336 -1210 159 -573 293 -1037 296 -1030
4 7 165 518 359 1137 193 619 362 1158 375 1198 l23 72 -718 0 -717 0 46 -167z"/>
<path d="M4583 6993 c2 -5 203 -342 447 -750 l443 -743 133 0 134 0 73 93 c40
50 300 382 577 737 276 355 507 651 513 658 7 9 -225 12 -1157 12 -642 0
-1165 -3 -1163 -7z"/>
<path d="M6420 6165 c-267 -349 -486 -640 -488 -645 -3 -7 166 -10 487 -10
l491 0 0 645 c0 355 -1 645 -3 645 -2 0 -221 -286 -487 -635z"/>
<path d="M0 6018 l0 -518 316 0 316 0 -19 33 c-11 17 -143 235 -295 482 -151
248 -285 466 -297 485 l-21 35 0 -517z"/>
<path d="M3995 4490 c-154 -44 -293 -83 -308 -87 l-28 -8 53 -40 c29 -21 176
-130 326 -242 l272 -203 0 330 c0 308 -1 330 -17 329 -10 -1 -144 -36 -298
-79z"/>
<path d="M3038 4042 l-348 -265 0 -802 0 -802 311 -151 c170 -84 313 -152 317
-152 7 0 77 2429 70 2434 -2 2 -159 -117 -350 -262z"/>
<path d="M3550 4188 c0 -57 -11 -604 -25 -1217 -14 -613 -23 -1116 -21 -1119
2 -2 184 84 403 191 l398 195 3 704 2 705 -374 321 c-206 177 -377 322 -380
322 -3 0 -6 -46 -6 -102z"/>
<path d="M2690 1454 c0 -277 2 -504 5 -504 6 0 556 733 552 736 -1 1 -127 63
-279 137 l-278 136 0 -505z"/>
<path d="M3028 1127 l-337 -452 -1 -337 0 -338 810 0 810 0 0 235 0 235 -471
555 c-259 305 -471 555 -472 555 -1 0 -154 -204 -339 -453z"/>
</g>
</svg>
