<svg version="1.1" xmlns="http://www.w3.org/2000/svg" viewBox="0 0 512 512"><path fill="#314E55" d="M484 73a37 37 0 0 0-1-3c-2-7-6-12-12-18s-13-11-23-16c-10-6-21-10-34-15a360 360 0 0 0-51-12 725 725 0 0 0-31-4 450 450 0 0 0-26-3l-24-1-11-1h-28l-18 1-22 1a467 467 0 0 0-37 4 387 387 0 0 0-76 19 161 161 0 0 0-34 15 81 81 0 0 0-16 14 42 42 0 0 0-11 20l-1 2v6l4 22 5 37 8 45 20 112a35 35 0 0 0 5 14l14 15a140 140 0 0 0 30 18 259 259 0 0 0 48 16 358 358 0 0 0 45 8 425 425 0 0 0 49 3h15a383 383 0 0 0 78-10 252 252 0 0 0 56-20c9-5 17-10 24-16a72 72 0 0 0 11-10 40 40 0 0 0 8-19l5-28 16-88a8500 8500 0 0 0 6-36 4587 4587 0 0 0 5-32l3-17 1-7V73zm-103 3l-19 7-33 6a466 466 0 0 1-42 3l-20 1h-20a999 999 0 0 1-24-1 435 435 0 0 1-87-14 67 67 0 0 1-8-4 11 11 0 0 1-2-1l4-2a68 68 0 0 1 12-5c8-3 17-5 29-7a424 424 0 0 1 38-4 615 615 0 0 1 64-2l22 1a495 495 0 0 1 74 12 69 69 0 0 1 17 7 25 25 0 0 1-5 3z"/><path fill="#81A4E3" d="M465 77v-1a27 27 0 0 0-7-11 78 78 0 0 0-18-13c-9-5-19-9-32-13a344 344 0 0 0-48-12 708 708 0 0 0-30-4 432 432 0 0 0-25-3l-24-1h-45l-10 1-22 1a459 459 0 0 0-35 4 367 367 0 0 0-73 17c-12 4-21 9-30 14a61 61 0 0 0-13 11 23 23 0 0 0-6 11v5l3 19 6 36 7 44 20 113a16 16 0 0 0 3 7 48 48 0 0 0 10 10c7 6 15 11 26 16a242 242 0 0 0 44 15 341 341 0 0 0 43 8 416 416 0 0 0 61 2c27 0 51-4 75-9a234 234 0 0 0 51-19c9-4 16-9 21-13a54 54 0 0 0 8-8 22 22 0 0 0 5-10l5-28 15-89a8293 8293 0 0 0 11-67l3-17 1-9v-7zm-84 0a309 309 0 0 1-52 12 467 467 0 0 1-42 3l-20 1h-20l-24-1a435 435 0 0 1-87-14 67 67 0 0 1-8-4 11 11 0 0 1-2-1l4-2a68 68 0 0 1 12-5c8-3 17-5 29-7a424 424 0 0 1 38-4 615 615 0 0 1 64-1l22 1a458 458 0 0 1 42 4 221 221 0 0 1 44 11l5 3a25 25 0 0 1-5 3z"/><path fill="#314E55" d="M256 170a79 79 0 0 0-56 23 76 76 0 0 0-22 54 78 78 0 0 0 78 78 79 79 0 0 0 56-23 76 76 0 0 0 23-55 78 78 0 0 0-79-77z"/><path fill="#D8D8D8" d="M299 289a61 61 0 0 1-43 17 60 60 0 0 1-60-59 58 58 0 0 1 17-41 61 61 0 0 1 43-17 60 60 0 0 1 61 58 58 58 0 0 1-18 42z"/><path fill="#314E55" d="M257 204h-1a44 44 0 0 0-31 13 43 43 0 0 0-13 30 44 44 0 0 0 44 44 44 44 0 0 0 32-13 43 43 0 0 0 12-31 44 44 0 0 0-44-43z"/><path fill="#D8D8D8" d="M275 265a26 26 0 0 1-19 7c-14 0-25-11-25-25a24 24 0 0 1 7-17 26 26 0 0 1 18-7c14 0 26 11 26 24 0 7-3 13-7 18z"/><path fill="#314E55" d="M417 348c-5-1-10 0-14 3l-2 1-8 5a226 226 0 0 1-52 23 293 293 0 0 1-68 11h-37a303 303 0 0 1-36-4 266 266 0 0 1-57-17 170 170 0 0 1-33-19 20 20 0 0 0-6-3 17 17 0 0 0-14 2 17 17 0 0 0-8 11 21 21 0 0 0 0 8 5015 5015 0 0 0 13 67l3 11a43 43 0 0 0 6 15 62 62 0 0 0 12 14 112 112 0 0 0 27 16c15 7 33 12 54 15a313 313 0 0 0 42 5h34a337 337 0 0 0 35-4 268 268 0 0 0 42-9 160 160 0 0 0 35-15 88 88 0 0 0 18-14 46 46 0 0 0 12-23l8-39 7-39v-7c-1-7-6-13-13-14z"/><path fill="#81A4E3" d="M404 405l-7 38c-1 5-4 10-8 14a65 65 0 0 1-14 11c-9 5-19 10-31 13a250 250 0 0 1-39 9 320 320 0 0 1-33 3h-31a309 309 0 0 1-41-4c-19-4-35-8-50-15-9-4-16-8-22-13l-8-9a24 24 0 0 1-4-9l-2-11a7608 7608 0 0 1-6-29 1490 1490 0 0 1-7-35c10 6 21 12 35 18a283 283 0 0 0 61 19 321 321 0 0 0 38 4h39a312 312 0 0 0 72-12 244 244 0 0 0 57-24l9-6a5388 5388 0 0 1-8 38z"/><path fill="#314E55" d="M399 59a52 52 0 0 0-9-5 83 83 0 0 0-16-6 253 253 0 0 0-34-8 476 476 0 0 0-44-4 767 767 0 0 0-23-1c-21-1-43 0-65 1a443 443 0 0 0-40 5 221 221 0 0 0-32 7 84 84 0 0 0-15 6 35 35 0 0 0-9 7c-7 7-7 17 0 24a32 32 0 0 0 7 5 84 84 0 0 0 11 5c11 5 24 7 34 9l58 7h24l11 1 10-1h21a510 510 0 0 0 79-10 111 111 0 0 0 22-8 42 42 0 0 0 10-6 18 18 0 0 0 7-14c0-4-2-9-8-14zm-18 17c-6 4-13 5-19 7a307 307 0 0 1-33 6 467 467 0 0 1-42 3l-20 1h-20l-24-1a435 435 0 0 1-87-14 67 67 0 0 1-8-4 11 11 0 0 1-2-1l4-2a68 68 0 0 1 12-5c8-3 17-5 29-7a424 424 0 0 1 38-4 615 615 0 0 1 64-1l22 1a458 458 0 0 1 42 4 221 221 0 0 1 44 11l5 3a25 25 0 0 1-5 3z"/></svg>
