<svg viewBox="0 0 45555 33097"><path fill="#E75A4D" d="M41608 250a3702 3702 0 0 1 3691 3691v1070l-5128 3663-17458 12026L5255 8552v24295H3941a3702 3702 0 0 1-3691-3691V3942A3702 3702 0 0 1 3941 251l18772 13918L41607 251z"/><path fill="#E7E4D7" d="M5255 8552v24295h34917V8674L22713 20700"/><path fill="#B8B7AE" d="M5255 32847l17458-12147-79-56L5255 32580"/><path fill="#B7B6AD" d="M40172 8674l10 24173-17469-12147"/><path fill="#B2392F" d="M45299 5011l6 24148c-88 2684-1251 3642-5123 3687l-10-24173 5128-3663z"/><path fill="#F7F5ED" d="M3941 250l18772 13918L41608 250"/></svg>