<svg version="1.1" xmlns="http://www.w3.org/2000/svg" viewBox="0 0 382 382"><path d="M347.4 0H34.6A34.6 34.6 0 0 0 0 34.6v312.9c0 19 15.5 34.5 34.6 34.5h312.9c19 0 34.5-15.5 34.5-34.6V34.6A34.6 34.6 0 0 0 347.4 0zM118.2 329.8a10 10 0 0 1-10.1 10.1H65.3a10 10 0 0 1-10.1-10.1V150.4a10 10 0 0 1 10.1-10.1h42.8a10 10 0 0 1 10.1 10.1v179.4zM86.7 123.4a40.6 40.6 0 0 1 0-81.3 40.7 40.7 0 0 1 0 81.3zm255.2 207.3c0 5.1-4.1 9.2-9.2 9.2h-46a9.2 9.2 0 0 1-9.2-9.2v-84.2c0-12.6 3.7-55-32.8-55-28.3 0-34.1 29.1-35.2 42.1v97.1c0 5.1-4.1 9.2-9.2 9.2h-44.4a9.2 9.2 0 0 1-9.2-9.2V149.6c0-5.1 4.1-9.2 9.2-9.2h44.4c5.1 0 9.2 4.1 9.2 9.2v15.7c10.5-15.8 26.1-27.9 59.3-27.9 73.6 0 73.1 68.7 73.1 106.5v86.8z" fill="#0077B7"/></svg>
